<svg id="svg" version="1.1" xmlns="http://www.w3.org/2000/svg" xmlns:xlink="http://www.w3.org/1999/xlink" width="400" height="93.82123575284943" viewBox="0, 0, 400,93.82123575284943"><g id="svgg"><path id="path0" d="M62.237 12.153 C 62.198 12.191,62.167 22.935,62.167 36.028 L 62.167 59.833 85.718 59.833 C 104.300 59.833,109.328 59.789,109.547 59.625 C 109.804 59.432,109.826 57.622,109.843 35.750 L 109.862 12.083 86.084 12.083 C 73.007 12.083,62.275 12.115,62.237 12.153 M87.934 19.794 C 88.035 19.862,88.281 20.479,88.481 21.167 C 88.680 21.854,88.953 22.798,89.088 23.265 C 89.628 25.133,89.516 25.456,87.607 27.502 C 85.151 30.134,84.199 33.486,85.230 35.866 C 85.589 36.695,85.344 36.801,84.370 36.237 C 81.823 34.763,80.031 31.166,81.061 29.594 C 81.211 29.365,81.333 29.074,81.333 28.947 C 81.333 28.706,82.118 27.145,82.313 27.000 C 82.374 26.954,82.561 26.702,82.729 26.439 C 82.896 26.176,83.420 25.537,83.892 25.019 C 85.558 23.190,86.870 21.403,87.283 20.399 C 87.598 19.632,87.637 19.596,87.934 19.794 M92.898 23.234 C 93.046 23.545,93.167 23.884,93.167 23.986 C 93.167 24.088,93.235 24.301,93.318 24.461 C 93.586 24.971,93.843 26.965,93.731 27.664 C 93.604 28.462,93.247 28.799,91.318 29.946 C 88.466 31.641,86.985 33.369,86.559 35.496 C 86.370 36.444,86.013 36.294,85.610 35.095 C 84.779 32.626,86.097 29.117,88.651 27.000 C 90.356 25.587,91.614 24.227,91.927 23.459 C 92.310 22.520,92.535 22.468,92.898 23.234 M81.004 24.375 C 81.187 24.673,81.462 25.309,81.614 25.788 L 81.892 26.659 81.284 27.871 C 79.578 31.278,80.145 33.703,83.235 36.217 C 84.584 37.315,81.437 37.157,79.699 36.040 C 79.034 35.612,78.167 34.804,78.167 34.611 C 78.167 34.519,78.053 34.317,77.914 34.164 C 76.800 32.933,77.026 29.442,78.346 27.497 C 78.752 26.899,79.383 25.831,79.750 25.124 C 80.508 23.660,80.550 23.635,81.004 24.375 M96.421 28.042 C 96.106 31.423,94.927 33.877,92.786 35.610 C 91.659 36.521,88.274 37.353,87.292 36.960 C 86.972 36.833,86.879 35.928,87.167 35.750 C 87.258 35.693,87.333 35.527,87.333 35.381 C 87.333 34.098,89.372 31.645,91.417 30.469 C 93.538 29.248,94.742 28.392,95.417 27.624 C 96.395 26.510,96.558 26.577,96.421 28.042 M89.178 38.005 C 89.265 38.140,89.317 38.625,89.293 39.083 L 89.250 39.917 85.869 39.917 C 82.129 39.917,82.172 39.929,82.172 38.833 C 82.172 37.720,82.293 37.687,86.301 37.731 C 88.483 37.755,89.050 37.809,89.178 38.005 M87.773 40.565 C 87.807 40.592,87.378 44.451,87.095 46.667 C 86.960 47.721,86.743 49.483,86.612 50.583 C 86.299 53.221,86.082 54.000,85.663 54.000 C 85.462 54.000,85.311 53.859,85.263 53.625 C 85.024 52.462,84.801 50.878,84.658 49.333 C 84.480 47.400,84.274 45.566,84.023 43.667 C 83.798 41.968,83.749 40.772,83.894 40.537 C 83.988 40.384,87.580 40.410,87.773 40.565 M79.125 65.304 C 78.749 65.373,78.757 65.525,79.167 66.045 C 79.350 66.279,79.500 66.517,79.500 66.575 C 79.500 66.633,79.643 66.883,79.817 67.132 C 80.644 68.309,82.333 71.004,82.333 71.146 C 82.333 71.234,82.390 71.331,82.458 71.361 C 82.640 71.442,84.452 74.352,84.658 74.894 C 84.756 75.153,84.833 76.639,84.833 78.284 L 84.833 81.213 85.708 81.108 C 86.190 81.050,86.902 81.002,87.292 81.001 L 88.000 81.000 88.000 77.958 L 88.000 74.917 88.625 73.915 C 88.969 73.364,89.700 72.221,90.250 71.375 C 94.626 64.642,94.415 65.336,92.101 65.282 C 90.440 65.244,90.308 65.328,89.289 67.082 C 88.916 67.725,88.548 68.275,88.472 68.306 C 88.396 68.336,88.331 68.449,88.329 68.556 C 88.326 68.662,88.026 69.198,87.662 69.746 C 87.298 70.294,87.000 70.806,87.000 70.883 C 87.000 71.036,86.577 71.500,86.437 71.500 C 86.307 71.500,84.722 68.979,83.700 67.148 C 82.594 65.163,82.721 65.250,80.928 65.250 C 80.097 65.250,79.285 65.274,79.125 65.304 M63.057 65.455 L 62.363 65.518 62.240 67.134 C 62.091 69.094,62.271 80.672,62.454 80.851 C 62.525 80.921,63.221 81.002,64.000 81.031 L 65.417 81.083 65.500 76.250 C 65.564 72.526,65.631 71.420,65.792 71.433 C 66.274 71.472,66.350 71.515,66.464 71.818 C 66.530 71.993,67.011 72.687,67.534 73.360 C 69.602 76.022,73.194 80.745,73.315 80.961 C 73.417 81.144,73.723 81.163,74.846 81.053 L 76.250 80.917 76.250 73.306 C 76.250 69.119,76.212 65.657,76.167 65.612 C 76.121 65.567,75.384 65.476,74.529 65.409 L 72.976 65.288 73.093 67.446 C 73.215 69.683,73.061 73.966,72.846 74.313 C 72.606 74.702,72.212 74.265,69.083 70.145 C 65.091 64.885,65.533 65.229,63.057 65.455 M97.083 65.453 L 96.417 65.515 96.432 70.716 C 96.440 73.576,96.504 76.048,96.575 76.208 C 96.645 76.369,96.659 76.612,96.606 76.750 C 96.554 76.887,96.575 77.000,96.654 77.000 C 96.733 77.000,96.846 77.194,96.905 77.431 C 97.271 78.886,98.560 80.112,100.562 80.910 C 101.312 81.209,105.409 81.282,105.583 81.000 C 105.640 80.908,105.799 80.833,105.936 80.833 C 106.507 80.833,107.676 80.122,108.366 79.354 C 109.682 77.891,109.886 76.781,109.965 70.651 L 110.032 65.551 108.891 65.443 C 108.263 65.384,107.553 65.335,107.312 65.335 L 106.874 65.333 106.783 69.958 C 106.648 76.783,106.358 77.645,104.031 78.144 C 102.002 78.580,100.000 77.410,100.000 75.790 C 100.000 75.575,99.906 75.306,99.792 75.192 C 99.637 75.038,99.570 73.739,99.532 70.159 L 99.481 65.333 98.616 65.362 C 98.140 65.378,97.450 65.419,97.083 65.453 " stroke="none" fill="#fbfafa" fill-rule="evenodd"></path><path id="path1" d="M183.167 18.997 L 183.167 31.160 183.544 31.255 C 183.751 31.307,184.482 31.327,185.169 31.300 L 186.417 31.250 186.459 19.042 L 186.502 6.833 184.834 6.833 L 183.167 6.833 183.167 18.997 M274.333 18.997 L 274.333 31.160 274.710 31.255 C 274.918 31.307,275.649 31.327,276.335 31.300 L 277.583 31.250 277.626 19.042 L 277.669 6.833 276.001 6.833 L 274.333 6.833 274.333 18.997 M191.542 7.279 C 191.335 7.423,191.167 7.644,191.167 7.770 C 191.167 7.897,191.092 8.000,191.000 8.000 C 190.907 8.000,190.833 8.444,190.833 9.000 C 190.833 9.556,190.907 10.000,191.000 10.000 C 191.092 10.000,191.167 10.110,191.167 10.244 C 191.167 11.223,194.355 11.035,194.608 10.042 C 194.660 9.835,194.770 9.667,194.851 9.667 C 194.933 9.667,195.000 9.367,195.000 9.000 C 195.000 8.633,194.925 8.333,194.833 8.333 C 194.742 8.333,194.667 8.232,194.667 8.108 C 194.667 7.166,192.520 6.597,191.542 7.279 M282.968 7.302 C 282.202 7.767,282.045 9.647,282.709 10.418 C 283.284 11.087,285.189 11.069,285.819 10.389 C 287.459 8.621,285.066 6.031,282.968 7.302 M147.208 7.946 C 146.910 7.987,146.667 8.083,146.667 8.159 C 146.667 8.234,146.398 8.347,146.069 8.408 C 145.367 8.540,144.167 9.134,144.167 9.350 C 144.167 9.433,144.062 9.500,143.934 9.500 C 143.492 9.500,141.000 12.184,141.000 12.660 C 141.000 12.755,140.925 12.833,140.833 12.833 C 140.741 12.833,140.575 13.171,140.465 13.583 C 140.354 13.996,140.213 14.333,140.151 14.333 C 140.088 14.333,139.985 14.615,139.920 14.958 C 139.856 15.302,139.716 15.689,139.610 15.817 C 139.331 16.155,139.338 23.630,139.617 23.803 C 139.727 23.871,139.868 24.243,139.930 24.630 C 139.992 25.017,140.096 25.333,140.161 25.333 C 140.227 25.333,140.379 25.633,140.500 26.000 C 140.621 26.367,140.783 26.667,140.860 26.667 C 140.937 26.667,141.000 26.768,141.000 26.891 C 141.000 27.014,141.150 27.251,141.333 27.417 C 141.517 27.583,141.667 27.782,141.667 27.860 C 141.667 28.085,143.234 29.558,143.766 29.833 C 144.032 29.970,144.287 30.130,144.333 30.187 C 144.472 30.359,145.964 31.000,146.227 31.000 C 146.362 31.000,146.499 31.079,146.531 31.176 C 146.695 31.667,152.952 31.599,153.917 31.096 C 154.192 30.953,154.499 30.835,154.599 30.834 C 154.854 30.833,155.871 30.315,156.137 30.052 C 156.258 29.932,156.438 29.833,156.536 29.833 C 156.924 29.833,159.180 27.301,159.543 26.458 C 159.651 26.206,159.789 26.000,159.848 26.000 C 159.908 26.000,160.055 25.644,160.174 25.208 C 160.294 24.773,160.453 24.375,160.529 24.324 C 160.604 24.273,160.714 23.767,160.773 23.199 C 160.832 22.631,160.945 22.167,161.024 22.167 C 161.102 22.167,161.167 20.929,161.167 19.417 C 161.167 17.904,161.101 16.667,161.022 16.667 C 160.942 16.667,160.825 16.217,160.763 15.667 C 160.701 15.117,160.579 14.667,160.492 14.667 C 160.405 14.667,160.333 14.536,160.333 14.377 C 160.333 13.982,159.501 12.343,159.042 11.835 C 158.835 11.607,158.667 11.368,158.667 11.304 C 158.667 11.152,157.136 9.667,156.979 9.667 C 156.912 9.667,156.758 9.570,156.637 9.452 C 156.280 9.104,155.230 8.500,154.980 8.499 C 154.854 8.498,154.525 8.372,154.250 8.217 C 153.753 7.938,148.680 7.743,147.208 7.946 M235.041 19.792 L 235.083 31.250 238.250 31.226 C 241.676 31.201,245.336 30.930,245.488 30.690 C 245.541 30.608,245.902 30.488,246.292 30.422 C 246.681 30.357,247.000 30.236,247.000 30.152 C 247.000 30.068,247.101 30.000,247.225 30.000 C 247.475 30.000,248.867 29.290,249.262 28.961 C 250.381 28.028,251.833 26.574,251.833 26.386 C 251.833 26.260,251.941 26.115,252.073 26.064 C 252.205 26.014,252.361 25.753,252.420 25.486 C 252.478 25.219,252.590 25.000,252.667 25.000 C 252.744 25.000,252.856 24.775,252.917 24.500 C 252.977 24.225,253.088 24.000,253.163 24.000 C 253.323 24.000,253.667 22.153,253.667 21.288 C 253.667 20.957,253.742 20.640,253.833 20.583 C 253.925 20.527,254.000 19.960,254.000 19.323 C 254.000 18.663,253.928 18.167,253.833 18.167 C 253.742 18.167,253.667 17.877,253.667 17.523 C 253.667 16.682,253.369 15.126,253.186 15.009 C 253.107 14.958,252.989 14.673,252.924 14.375 C 252.860 14.077,252.739 13.833,252.657 13.833 C 252.574 13.833,252.461 13.651,252.405 13.429 C 252.349 13.206,252.198 12.984,252.068 12.934 C 251.939 12.884,251.833 12.758,251.833 12.654 C 251.833 12.456,250.118 10.667,249.928 10.667 C 249.806 10.667,248.796 9.977,248.665 9.805 C 248.618 9.743,248.374 9.642,248.123 9.578 C 247.872 9.515,247.667 9.403,247.667 9.329 C 247.667 9.254,247.423 9.141,247.125 9.077 C 246.827 9.014,246.508 8.902,246.417 8.829 C 245.980 8.484,243.922 8.333,239.635 8.333 L 234.998 8.333 235.041 19.792 M152.070 10.978 C 152.119 11.058,152.461 11.171,152.830 11.230 C 153.198 11.289,153.500 11.403,153.500 11.484 C 153.500 11.565,153.669 11.674,153.875 11.727 C 154.832 11.973,156.621 14.228,156.935 15.583 C 156.999 15.858,157.134 16.137,157.234 16.202 C 157.511 16.382,157.486 23.032,157.208 23.125 C 157.094 23.163,156.999 23.319,156.998 23.472 C 156.992 24.309,154.958 27.167,154.368 27.167 C 154.277 27.167,154.159 27.279,154.106 27.417 C 154.054 27.554,153.914 27.667,153.797 27.668 C 153.679 27.668,153.358 27.797,153.083 27.954 C 152.679 28.184,152.137 28.239,150.250 28.244 C 147.781 28.250,147.637 28.213,145.925 27.124 C 145.368 26.769,144.167 25.347,144.167 25.042 C 144.167 24.927,144.098 24.833,144.013 24.833 C 143.929 24.833,143.810 24.608,143.750 24.333 C 143.690 24.058,143.576 23.833,143.497 23.833 C 143.418 23.833,143.301 23.477,143.237 23.042 C 143.173 22.606,143.050 22.205,142.964 22.149 C 142.756 22.015,142.758 17.544,142.966 17.286 C 143.056 17.174,143.182 16.765,143.246 16.375 C 143.310 15.985,143.431 15.667,143.515 15.667 C 143.598 15.667,143.667 15.549,143.667 15.405 C 143.667 14.613,145.931 11.949,146.792 11.727 C 146.998 11.674,147.167 11.567,147.167 11.489 C 147.167 11.412,147.430 11.299,147.752 11.239 C 148.074 11.178,148.378 11.062,148.428 10.981 C 148.546 10.790,151.952 10.787,152.070 10.978 M244.000 11.484 C 244.000 11.567,244.375 11.687,244.833 11.750 C 245.292 11.813,245.667 11.927,245.667 12.003 C 245.667 12.079,245.944 12.232,246.282 12.344 C 246.991 12.578,247.096 12.652,248.153 13.667 C 248.967 14.448,249.666 15.457,249.668 15.853 C 249.668 15.980,249.792 16.308,249.943 16.583 C 250.275 17.189,250.377 21.620,250.068 22.016 C 249.967 22.145,249.789 22.606,249.671 23.042 C 249.553 23.477,249.400 23.833,249.330 23.833 C 249.260 23.833,249.160 24.002,249.109 24.209 C 248.862 25.191,246.326 27.142,244.724 27.581 C 244.151 27.738,241.553 28.021,239.875 28.109 L 238.333 28.190 238.333 19.761 L 238.333 11.333 241.167 11.333 C 242.749 11.333,244.000 11.400,244.000 11.484 M171.167 14.146 C 171.167 14.226,170.941 14.337,170.665 14.392 C 170.090 14.507,169.306 15.029,168.632 15.745 L 168.167 16.241 168.167 15.370 L 168.167 14.500 166.417 14.500 L 164.667 14.500 164.667 22.744 C 164.667 32.255,164.464 31.333,166.552 31.333 C 168.243 31.333,168.133 31.727,168.202 25.415 C 168.261 19.928,168.289 19.652,168.875 18.768 C 169.297 18.130,170.185 17.335,170.587 17.234 C 170.814 17.177,171.000 17.064,171.000 16.982 C 171.000 16.900,171.525 16.833,172.167 16.833 C 172.833 16.833,173.333 16.905,173.333 17.000 C 173.333 17.092,173.440 17.167,173.571 17.167 C 173.916 17.167,174.797 17.954,174.930 18.382 C 174.993 18.585,175.129 18.803,175.231 18.869 C 175.360 18.952,175.432 20.806,175.468 24.981 C 175.527 31.917,175.363 31.368,177.359 31.299 L 178.750 31.250 178.750 24.514 C 178.750 19.273,178.704 17.762,178.542 17.708 C 178.427 17.670,178.333 17.476,178.333 17.278 C 178.331 16.434,176.700 14.565,175.810 14.387 C 175.548 14.335,175.333 14.226,175.333 14.146 C 175.333 14.066,174.396 14.000,173.250 14.000 C 172.104 14.000,171.167 14.066,171.167 14.146 M205.500 14.146 C 205.500 14.226,205.274 14.337,204.998 14.392 C 204.402 14.511,203.637 15.033,202.884 15.833 L 202.335 16.417 202.334 15.458 L 202.333 14.500 200.667 14.500 L 199.000 14.500 199.000 22.826 L 199.000 31.152 199.542 31.252 C 199.840 31.308,200.571 31.330,201.167 31.302 L 202.250 31.250 202.294 25.958 C 202.322 22.622,202.399 20.667,202.502 20.667 C 202.593 20.667,202.668 20.460,202.669 20.208 C 202.670 19.956,202.780 19.563,202.913 19.333 C 203.045 19.104,203.206 18.812,203.271 18.683 C 203.515 18.197,204.472 17.347,204.894 17.241 C 205.136 17.180,205.333 17.064,205.333 16.982 C 205.333 16.900,205.858 16.833,206.500 16.833 C 207.167 16.833,207.667 16.905,207.667 17.000 C 207.667 17.092,207.785 17.167,207.931 17.167 C 208.253 17.167,209.333 18.249,209.333 18.572 C 209.333 18.701,209.427 18.837,209.542 18.875 C 209.702 18.928,209.762 20.351,209.801 25.055 L 209.852 31.165 210.220 31.257 C 210.422 31.308,211.149 31.327,211.835 31.300 L 213.083 31.250 213.083 24.514 C 213.083 19.273,213.037 17.762,212.875 17.708 C 212.760 17.670,212.667 17.485,212.667 17.297 C 212.667 16.466,211.013 14.561,210.140 14.386 C 209.876 14.333,209.619 14.225,209.570 14.145 C 209.453 13.955,205.500 13.956,205.500 14.146 M222.167 14.167 C 222.167 14.258,222.014 14.333,221.828 14.333 C 220.802 14.333,218.502 16.139,217.955 17.374 C 217.843 17.627,217.701 17.833,217.639 17.833 C 217.577 17.833,217.477 18.058,217.417 18.333 C 217.356 18.608,217.240 18.833,217.159 18.833 C 217.078 18.833,216.962 19.210,216.900 19.670 C 216.839 20.131,216.724 20.548,216.645 20.597 C 216.448 20.718,216.460 24.931,216.658 25.294 C 216.745 25.453,216.862 25.940,216.918 26.375 C 216.974 26.810,217.085 27.167,217.164 27.167 C 217.242 27.167,217.356 27.392,217.417 27.667 C 217.477 27.942,217.596 28.167,217.680 28.167 C 217.764 28.167,217.834 28.260,217.834 28.375 C 217.835 28.619,218.978 30.000,219.179 30.000 C 219.254 30.000,219.520 30.189,219.770 30.421 C 220.020 30.652,220.417 30.889,220.654 30.946 C 220.890 31.004,221.131 31.124,221.189 31.213 C 221.452 31.614,227.035 31.615,227.532 31.214 C 227.652 31.117,227.994 30.986,228.292 30.923 C 228.590 30.859,228.833 30.738,228.833 30.653 C 228.833 30.569,228.934 30.500,229.058 30.500 C 229.735 30.500,230.000 29.920,230.000 28.439 C 230.000 27.033,229.701 26.448,229.394 27.250 C 229.341 27.387,229.212 27.502,229.107 27.505 C 229.002 27.508,228.542 27.695,228.083 27.920 C 227.625 28.146,227.119 28.331,226.958 28.332 C 226.798 28.333,226.667 28.408,226.667 28.500 C 226.667 28.707,223.391 28.728,223.263 28.522 C 223.214 28.442,222.966 28.333,222.712 28.281 C 222.187 28.172,220.667 26.782,220.667 26.411 C 220.667 26.277,220.596 26.167,220.510 26.167 C 220.424 26.167,220.303 25.829,220.241 25.417 C 220.179 25.004,220.062 24.667,219.981 24.667 C 219.900 24.667,219.833 24.479,219.833 24.250 L 219.833 23.833 225.523 23.833 L 231.212 23.833 231.131 21.317 C 231.086 19.905,230.977 18.753,230.883 18.692 C 230.790 18.632,230.663 18.302,230.600 17.958 C 230.537 17.615,230.432 17.333,230.366 17.333 C 230.301 17.333,230.155 17.124,230.042 16.869 C 229.806 16.335,228.572 15.000,228.315 15.000 C 228.220 15.000,228.030 14.888,227.893 14.750 C 227.755 14.613,227.348 14.453,226.988 14.395 C 226.628 14.338,226.333 14.225,226.333 14.145 C 226.333 14.065,225.396 14.000,224.250 14.000 C 222.972 14.000,222.167 14.064,222.167 14.167 M262.000 14.145 C 262.000 14.225,261.713 14.337,261.362 14.393 C 261.011 14.449,260.549 14.646,260.336 14.831 C 260.123 15.016,259.884 15.167,259.804 15.167 C 259.569 15.167,258.010 16.874,257.789 17.374 C 257.677 17.627,257.535 17.833,257.473 17.833 C 257.411 17.833,257.310 18.058,257.250 18.333 C 257.190 18.608,257.074 18.833,256.992 18.833 C 256.911 18.833,256.795 19.208,256.734 19.667 C 256.673 20.125,256.558 20.500,256.479 20.500 C 256.281 20.500,256.293 24.931,256.491 25.294 C 256.578 25.453,256.696 25.940,256.752 26.375 C 256.808 26.810,256.918 27.167,256.997 27.167 C 257.076 27.167,257.190 27.392,257.250 27.667 C 257.310 27.942,257.429 28.167,257.513 28.167 C 257.598 28.167,257.667 28.260,257.667 28.375 C 257.668 28.619,258.811 30.000,259.012 30.000 C 259.088 30.000,259.354 30.189,259.603 30.421 C 259.853 30.652,260.251 30.889,260.487 30.946 C 260.723 31.004,260.964 31.124,261.022 31.213 C 261.285 31.614,266.869 31.615,267.366 31.214 C 267.485 31.117,267.827 30.986,268.125 30.923 C 268.423 30.859,268.667 30.738,268.667 30.653 C 268.667 30.569,268.768 30.500,268.891 30.500 C 269.568 30.500,269.833 29.920,269.833 28.439 C 269.833 27.033,269.535 26.448,269.227 27.250 C 269.174 27.387,269.045 27.502,268.941 27.505 C 268.836 27.508,268.375 27.695,267.917 27.920 C 267.458 28.146,266.952 28.331,266.792 28.332 C 266.631 28.333,266.500 28.408,266.500 28.500 C 266.500 28.707,263.224 28.728,263.097 28.522 C 263.047 28.442,262.799 28.333,262.545 28.281 C 262.021 28.172,260.500 26.782,260.500 26.411 C 260.500 26.277,260.430 26.167,260.344 26.167 C 260.257 26.167,260.136 25.829,260.075 25.417 C 260.013 25.004,259.896 24.667,259.814 24.667 C 259.733 24.667,259.667 24.479,259.667 24.250 L 259.667 23.833 265.356 23.833 L 271.045 23.833 270.965 21.317 C 270.919 19.905,270.810 18.753,270.716 18.692 C 270.624 18.632,270.496 18.302,270.433 17.958 C 270.370 17.615,270.265 17.333,270.200 17.333 C 270.135 17.333,269.989 17.124,269.876 16.869 C 269.639 16.335,268.406 15.000,268.149 15.000 C 268.054 15.000,267.864 14.888,267.726 14.750 C 267.589 14.613,267.182 14.453,266.822 14.395 C 266.461 14.338,266.167 14.225,266.167 14.145 C 266.167 14.065,265.229 14.000,264.083 14.000 C 262.938 14.000,262.000 14.065,262.000 14.145 M310.928 14.148 C 310.878 14.229,310.581 14.344,310.269 14.402 C 309.956 14.461,309.512 14.657,309.282 14.838 C 309.052 15.019,308.813 15.167,308.752 15.167 C 308.559 15.167,307.000 16.787,307.000 16.987 C 307.000 17.092,306.892 17.219,306.760 17.269 C 306.628 17.320,306.472 17.580,306.414 17.847 C 306.355 18.115,306.252 18.333,306.185 18.333 C 305.130 18.333,305.119 26.905,306.173 27.667 C 306.236 27.712,306.337 27.900,306.396 28.083 C 306.487 28.365,306.825 28.817,307.643 29.750 C 307.723 29.842,307.957 30.029,308.164 30.167 C 308.370 30.304,308.710 30.548,308.921 30.708 C 309.131 30.869,309.407 31.000,309.535 31.000 C 309.662 31.000,309.850 31.083,309.951 31.185 C 310.391 31.624,315.938 31.629,316.377 31.190 C 316.481 31.086,316.696 31.000,316.855 31.000 C 317.013 31.000,317.243 30.906,317.366 30.792 C 317.488 30.677,317.869 30.440,318.211 30.265 L 318.833 29.948 318.833 28.474 C 318.833 26.949,318.682 26.677,318.137 27.219 C 317.843 27.511,316.089 28.333,315.760 28.333 C 315.617 28.333,315.500 28.408,315.500 28.500 C 315.500 28.709,312.057 28.727,311.928 28.518 C 311.878 28.437,311.651 28.324,311.423 28.267 C 310.567 28.052,309.274 26.494,309.077 25.439 C 309.014 25.104,308.896 24.789,308.814 24.738 C 308.733 24.688,308.667 24.464,308.667 24.240 L 308.667 23.833 314.333 23.833 L 320.000 23.833 320.000 21.833 C 320.000 20.733,319.935 19.833,319.857 19.833 C 319.778 19.833,319.669 19.463,319.616 19.011 C 319.446 17.579,317.785 15.000,317.033 15.000 C 316.923 15.000,316.833 14.932,316.833 14.849 C 316.833 14.766,316.458 14.601,316.000 14.484 C 315.542 14.366,315.167 14.209,315.167 14.135 C 315.167 13.950,311.043 13.963,310.928 14.148 M328.417 14.552 C 328.142 14.679,327.598 15.140,327.208 15.575 L 326.500 16.367 326.500 15.434 L 326.500 14.500 324.833 14.500 L 323.167 14.500 323.167 22.816 C 323.167 30.244,323.195 31.142,323.430 31.232 C 323.802 31.375,326.044 31.353,326.277 31.205 C 326.416 31.117,326.487 29.555,326.527 25.701 C 326.565 22.112,326.643 20.281,326.762 20.202 C 326.861 20.137,327.039 19.727,327.159 19.292 C 327.279 18.856,327.423 18.499,327.480 18.499 C 327.537 18.498,327.878 18.218,328.237 17.877 C 329.022 17.134,330.788 16.880,331.578 17.398 C 332.170 17.786,332.167 17.792,332.167 16.333 C 332.167 14.960,332.401 14.550,332.594 15.583 C 332.655 15.904,332.770 16.167,332.852 16.167 C 332.933 16.167,333.000 16.278,333.000 16.413 C 333.000 16.639,333.553 18.152,334.108 19.442 C 334.232 19.731,334.333 20.087,334.333 20.234 C 334.333 20.380,334.400 20.500,334.481 20.500 C 334.563 20.500,334.679 20.762,334.739 21.083 C 334.799 21.404,334.906 21.667,334.976 21.667 C 335.046 21.667,335.202 22.051,335.323 22.521 C 335.443 22.991,335.644 23.572,335.770 23.813 C 335.895 24.053,335.998 24.381,335.999 24.542 C 336.000 24.702,336.067 24.833,336.148 24.833 C 336.230 24.833,336.345 25.096,336.406 25.417 C 336.466 25.738,336.578 26.000,336.656 26.000 C 336.733 26.000,336.845 26.262,336.906 26.583 C 336.966 26.904,337.075 27.167,337.148 27.167 C 337.221 27.167,337.372 27.578,337.485 28.080 C 337.597 28.583,337.751 29.032,337.826 29.079 C 337.901 29.125,338.012 29.426,338.072 29.748 C 338.132 30.070,338.253 30.333,338.341 30.333 C 338.428 30.333,338.500 30.596,338.500 30.917 C 338.500 31.238,338.425 31.500,338.333 31.500 C 338.242 31.500,338.167 31.579,338.167 31.676 C 338.167 31.773,338.022 32.169,337.846 32.557 C 337.669 32.944,337.473 33.465,337.411 33.714 C 337.348 33.963,337.230 34.167,337.149 34.167 C 337.067 34.167,337.000 34.259,337.000 34.371 C 337.000 35.285,333.879 36.414,333.417 35.667 C 333.115 35.179,332.991 35.625,333.035 37.042 L 333.083 38.583 334.812 38.631 C 336.539 38.679,337.248 38.503,338.051 37.829 C 338.788 37.210,339.167 36.831,339.167 36.712 C 339.167 36.636,339.317 36.446,339.500 36.289 C 339.683 36.132,339.833 35.890,339.833 35.752 C 339.833 35.613,339.907 35.500,339.997 35.500 C 340.087 35.500,340.207 35.313,340.265 35.083 C 340.322 34.854,340.430 34.667,340.505 34.667 C 340.579 34.667,340.693 34.424,340.759 34.127 C 340.824 33.831,340.974 33.437,341.093 33.252 C 341.212 33.068,341.360 32.635,341.423 32.292 C 341.486 31.948,341.595 31.667,341.667 31.667 C 341.738 31.667,341.845 31.404,341.906 31.083 C 341.966 30.762,342.087 30.500,342.174 30.500 C 342.262 30.500,342.336 30.369,342.339 30.208 C 342.342 30.048,342.490 29.617,342.667 29.250 C 342.844 28.883,342.991 28.457,342.994 28.302 C 342.997 28.146,343.067 27.978,343.150 27.927 C 343.232 27.876,343.390 27.459,343.500 27.001 C 343.610 26.542,343.759 26.167,343.831 26.167 C 343.904 26.167,344.012 25.904,344.072 25.583 C 344.133 25.262,344.253 25.000,344.341 25.000 C 344.428 25.000,344.503 24.869,344.506 24.708 C 344.509 24.548,344.656 24.117,344.833 23.750 C 345.010 23.383,345.158 22.971,345.162 22.833 C 345.166 22.696,345.274 22.382,345.402 22.136 C 345.530 21.890,345.686 21.459,345.748 21.178 C 345.809 20.897,345.921 20.667,345.995 20.667 C 346.069 20.667,346.178 20.410,346.237 20.095 C 346.296 19.781,346.398 19.500,346.464 19.470 C 346.607 19.406,347.124 18.030,347.376 17.042 C 347.475 16.652,347.610 16.333,347.676 16.333 C 347.742 16.333,347.845 16.071,347.906 15.750 C 347.966 15.429,348.087 15.167,348.174 15.167 C 348.262 15.167,348.333 15.017,348.333 14.833 C 348.333 14.523,348.223 14.500,346.708 14.503 C 344.826 14.506,344.736 14.542,344.580 15.375 C 344.516 15.719,344.403 16.000,344.329 16.000 C 344.256 16.000,344.145 16.300,344.083 16.667 C 344.021 17.033,343.918 17.333,343.853 17.333 C 343.788 17.333,343.636 17.783,343.514 18.333 C 343.392 18.883,343.233 19.333,343.161 19.333 C 343.088 19.333,342.979 19.633,342.917 20.000 C 342.855 20.367,342.742 20.667,342.667 20.667 C 342.591 20.667,342.479 20.967,342.417 21.333 C 342.355 21.700,342.244 22.000,342.171 22.000 C 342.097 22.000,341.985 22.279,341.921 22.619 C 341.857 22.960,341.705 23.431,341.583 23.667 C 341.462 23.902,341.310 24.374,341.246 24.714 C 341.182 25.055,341.071 25.333,341.000 25.333 C 340.929 25.333,340.819 25.607,340.757 25.941 C 340.621 26.663,340.167 27.239,340.167 26.688 C 340.167 26.504,340.098 26.311,340.015 26.259 C 339.931 26.207,339.812 25.865,339.750 25.499 C 339.688 25.133,339.579 24.833,339.507 24.833 C 339.435 24.833,339.289 24.386,339.181 23.839 C 339.073 23.292,338.914 22.800,338.826 22.745 C 338.738 22.691,338.666 22.520,338.666 22.365 C 338.665 22.210,338.555 21.874,338.422 21.618 C 338.288 21.362,338.130 20.893,338.071 20.576 C 338.012 20.259,337.906 20.000,337.836 20.000 C 337.767 20.000,337.622 19.552,337.514 19.005 C 337.407 18.458,337.253 17.970,337.174 17.921 C 337.094 17.872,336.978 17.532,336.917 17.166 C 336.855 16.800,336.736 16.500,336.652 16.500 C 336.568 16.500,336.500 16.351,336.500 16.168 C 336.500 15.985,336.370 15.535,336.211 15.168 L 335.921 14.500 334.904 14.500 C 334.344 14.500,332.768 14.460,331.401 14.410 C 329.481 14.341,328.803 14.373,328.417 14.552 M191.167 22.816 C 191.167 30.244,191.195 31.142,191.430 31.232 C 191.772 31.363,193.894 31.363,194.236 31.232 C 194.472 31.142,194.500 30.244,194.500 22.816 L 194.500 14.500 192.833 14.500 L 191.167 14.500 191.167 22.816 M282.500 22.830 L 282.500 31.160 282.877 31.255 C 283.084 31.307,283.816 31.327,284.502 31.300 L 285.750 31.250 285.793 22.875 L 285.836 14.500 284.168 14.500 L 282.500 14.500 282.500 22.830 M288.127 14.595 C 288.075 14.647,288.137 14.891,288.265 15.137 C 288.393 15.382,288.498 15.715,288.499 15.875 C 288.500 16.035,288.575 16.167,288.667 16.167 C 288.758 16.167,288.833 16.287,288.833 16.433 C 288.833 16.580,288.938 16.936,289.065 17.225 C 289.307 17.772,289.725 18.969,290.047 20.042 C 290.151 20.385,290.295 20.667,290.368 20.667 C 290.440 20.667,290.500 20.798,290.501 20.958 C 290.502 21.119,290.611 21.459,290.745 21.715 C 290.878 21.971,291.036 22.440,291.096 22.757 C 291.155 23.074,291.263 23.333,291.335 23.333 C 291.408 23.333,291.557 23.709,291.667 24.167 C 291.777 24.626,291.928 25.039,292.002 25.085 C 292.077 25.131,292.188 25.468,292.250 25.834 C 292.312 26.200,292.423 26.500,292.496 26.500 C 292.570 26.500,292.679 26.762,292.739 27.083 C 292.799 27.404,292.907 27.667,292.979 27.667 C 293.052 27.667,293.193 27.985,293.293 28.375 C 294.004 31.134,294.181 31.333,295.931 31.333 C 297.441 31.333,297.833 31.142,297.833 30.405 C 297.833 30.182,297.905 30.000,297.992 30.000 C 298.080 30.000,298.201 29.737,298.261 29.417 C 298.321 29.096,298.429 28.833,298.500 28.833 C 298.571 28.833,298.679 28.571,298.739 28.250 C 298.799 27.929,298.908 27.667,298.981 27.667 C 299.054 27.667,299.212 27.254,299.333 26.750 C 299.454 26.246,299.615 25.833,299.691 25.833 C 299.767 25.833,299.877 25.533,299.936 25.167 C 299.995 24.800,300.105 24.500,300.180 24.500 C 300.256 24.500,300.367 24.238,300.428 23.917 C 300.488 23.596,300.598 23.333,300.672 23.333 C 300.746 23.333,300.859 23.090,300.923 22.792 C 300.986 22.494,301.097 22.175,301.169 22.083 C 301.240 21.992,301.396 21.579,301.514 21.167 C 301.632 20.754,301.827 20.269,301.947 20.088 C 302.068 19.907,302.167 19.588,302.167 19.380 C 302.167 19.171,302.238 19.000,302.326 19.000 C 302.413 19.000,302.534 18.737,302.594 18.417 C 302.655 18.096,302.764 17.833,302.839 17.833 C 302.913 17.833,303.027 17.590,303.091 17.292 C 303.156 16.994,303.312 16.602,303.438 16.421 C 303.564 16.240,303.667 15.978,303.668 15.838 C 303.668 15.698,303.778 15.374,303.912 15.117 C 304.231 14.506,304.134 14.475,302.071 14.535 C 300.448 14.582,300.416 14.591,300.358 15.000 C 300.326 15.229,300.251 15.454,300.192 15.500 C 300.029 15.625,299.496 17.141,299.297 18.042 C 299.201 18.477,299.057 18.833,298.978 18.833 C 298.898 18.833,298.833 18.965,298.832 19.125 C 298.832 19.285,298.722 19.626,298.589 19.882 C 298.455 20.138,298.297 20.607,298.238 20.924 C 298.178 21.241,298.075 21.500,298.008 21.500 C 297.941 21.500,297.793 21.916,297.680 22.424 C 297.566 22.932,297.367 23.550,297.238 23.799 C 297.108 24.047,297.002 24.381,297.001 24.542 C 297.000 24.702,296.932 24.833,296.848 24.833 C 296.764 24.833,296.645 25.133,296.583 25.499 C 296.522 25.865,296.403 26.207,296.319 26.259 C 296.235 26.311,296.158 26.517,296.147 26.718 C 296.132 27.000,296.111 27.017,296.052 26.792 C 296.010 26.631,295.915 26.500,295.840 26.500 C 295.765 26.500,295.612 26.012,295.500 25.417 C 295.388 24.821,295.236 24.333,295.162 24.333 C 295.089 24.333,294.979 24.034,294.917 23.668 C 294.855 23.301,294.742 22.963,294.667 22.917 C 294.591 22.870,294.478 22.532,294.417 22.166 C 294.355 21.800,294.244 21.500,294.171 21.500 C 294.098 21.500,293.987 21.162,293.925 20.750 C 293.864 20.337,293.754 20.000,293.683 20.000 C 293.612 20.000,293.461 19.589,293.349 19.086 C 293.236 18.584,293.081 18.133,293.003 18.085 C 292.926 18.037,292.812 17.699,292.750 17.332 C 292.688 16.966,292.574 16.667,292.496 16.667 C 292.418 16.667,292.303 16.329,292.241 15.917 C 292.179 15.504,292.062 15.167,291.981 15.167 C 291.900 15.167,291.833 15.017,291.833 14.833 C 291.833 14.507,288.434 14.288,288.127 14.595 M225.500 17.000 C 225.500 17.092,225.610 17.167,225.744 17.167 C 226.088 17.167,227.128 18.114,227.264 18.552 C 227.327 18.753,227.447 18.961,227.532 19.016 C 227.616 19.070,227.729 19.539,227.783 20.057 L 227.880 21.000 223.857 21.000 C 220.197 21.000,219.452 20.922,219.981 20.595 C 220.062 20.545,220.178 20.240,220.239 19.919 C 220.299 19.597,220.420 19.333,220.508 19.333 C 220.595 19.333,220.667 19.228,220.667 19.099 C 220.667 18.744,222.082 17.361,222.571 17.238 C 222.807 17.179,223.000 17.064,223.000 16.982 C 223.000 16.900,223.563 16.833,224.250 16.833 C 224.972 16.833,225.500 16.904,225.500 17.000 M265.333 17.000 C 265.333 17.092,265.446 17.167,265.583 17.167 C 265.915 17.167,267.167 18.392,267.167 18.717 C 267.167 18.857,267.245 18.998,267.341 19.030 C 267.437 19.062,267.560 19.519,267.615 20.044 L 267.713 21.000 263.690 21.000 C 260.030 21.000,259.285 20.922,259.814 20.595 C 259.896 20.545,260.012 20.240,260.072 19.919 C 260.132 19.597,260.253 19.333,260.341 19.333 C 260.428 19.333,260.500 19.228,260.500 19.099 C 260.500 18.744,261.916 17.361,262.404 17.238 C 262.640 17.179,262.833 17.064,262.833 16.982 C 262.833 16.900,263.396 16.833,264.083 16.833 C 264.806 16.833,265.333 16.904,265.333 17.000 M314.528 17.125 C 315.323 17.542,316.150 18.494,316.269 19.127 C 316.325 19.426,316.438 19.711,316.519 19.762 C 316.600 19.812,316.667 20.111,316.667 20.427 L 316.667 21.000 312.667 21.000 C 308.992 21.000,308.284 20.923,308.833 20.583 C 308.925 20.527,309.000 20.352,309.000 20.196 C 309.000 19.377,310.579 17.445,311.422 17.234 C 311.648 17.177,311.833 17.064,311.833 16.982 C 311.833 16.705,313.941 16.816,314.528 17.125 M189.625 59.807 C 189.101 60.123,188.915 60.796,189.041 61.917 C 189.294 64.160,193.000 63.810,193.000 61.543 C 193.000 60.760,192.574 59.833,192.214 59.833 C 192.096 59.833,192.000 59.758,192.000 59.667 C 192.000 59.391,190.132 59.501,189.625 59.807 M140.667 72.172 L 140.667 83.678 142.375 83.631 L 144.083 83.583 144.128 79.480 L 144.172 75.376 146.836 75.255 C 148.302 75.189,149.538 75.073,149.584 74.998 C 149.631 74.924,149.968 74.812,150.334 74.750 C 150.700 74.688,151.000 74.569,151.000 74.485 C 151.000 74.402,151.097 74.333,151.217 74.333 C 151.631 74.333,153.499 72.828,153.956 72.125 C 154.209 71.735,154.471 71.392,154.536 71.363 C 154.602 71.333,154.707 71.033,154.769 70.696 C 154.831 70.359,154.964 70.030,155.065 69.965 C 155.184 69.888,155.249 69.086,155.250 67.715 C 155.250 65.612,155.123 64.992,154.492 64.000 C 154.404 63.862,154.265 63.595,154.182 63.406 C 154.056 63.117,153.525 62.604,152.556 61.834 C 152.449 61.750,152.168 61.632,151.931 61.572 C 151.694 61.513,151.500 61.402,151.500 61.325 C 151.500 61.249,151.162 61.136,150.748 61.074 C 150.334 61.012,149.955 60.895,149.905 60.814 C 149.855 60.733,147.756 60.667,145.240 60.667 L 140.667 60.667 140.667 72.172 M232.167 62.289 C 231.938 62.332,231.713 62.419,231.667 62.483 C 231.621 62.546,231.283 62.670,230.917 62.757 L 230.250 62.917 230.203 64.958 L 230.156 67.000 228.738 67.000 L 227.320 67.000 227.368 68.375 L 227.417 69.750 228.792 69.798 L 230.167 69.847 230.167 75.247 C 230.167 78.667,230.228 80.685,230.333 80.750 C 230.425 80.807,230.500 80.981,230.500 81.137 C 230.500 81.904,231.680 83.388,232.458 83.600 C 232.665 83.657,232.833 83.770,232.833 83.851 C 232.833 84.049,236.423 84.043,236.794 83.845 C 236.953 83.761,237.215 83.650,237.375 83.601 C 237.623 83.524,237.667 83.297,237.667 82.089 C 237.667 80.551,237.499 80.338,236.740 80.911 C 236.226 81.300,234.742 81.242,234.317 80.817 C 233.733 80.233,233.667 79.603,233.667 74.631 L 233.667 69.844 235.625 69.797 L 237.583 69.750 237.632 68.375 L 237.680 67.000 235.673 67.000 L 233.667 67.000 233.667 64.583 L 233.667 62.167 233.125 62.189 C 232.827 62.202,232.396 62.247,232.167 62.289 M149.638 64.238 C 150.458 64.681,151.333 65.622,151.445 66.182 C 151.499 66.453,151.608 66.714,151.688 66.763 C 151.890 66.888,151.871 68.624,151.667 68.750 C 151.575 68.807,151.500 69.025,151.500 69.234 C 151.500 69.444,151.347 69.796,151.160 70.016 C 150.973 70.236,150.646 70.619,150.433 70.866 C 150.220 71.113,149.848 71.365,149.606 71.426 C 149.364 71.486,149.167 71.591,149.167 71.657 C 149.167 71.723,149.073 71.792,148.958 71.810 C 148.149 71.933,145.764 72.142,145.042 72.153 L 144.167 72.167 144.167 67.985 L 144.167 63.803 146.625 63.870 C 148.582 63.924,149.196 63.999,149.638 64.238 M174.833 66.603 C 174.696 66.654,174.347 66.802,174.058 66.932 C 173.769 67.061,173.451 67.167,173.350 67.167 C 173.249 67.167,173.167 67.234,173.167 67.315 C 173.167 67.397,172.998 67.508,172.792 67.561 C 171.940 67.781,169.833 70.242,169.833 71.017 C 169.833 71.191,169.761 71.333,169.672 71.333 C 169.584 71.333,169.462 71.708,169.401 72.167 C 169.340 72.625,169.225 73.000,169.145 73.000 C 169.065 73.000,169.000 74.050,169.000 75.333 C 169.000 76.617,169.065 77.667,169.145 77.667 C 169.225 77.667,169.340 78.042,169.401 78.500 C 169.462 78.958,169.584 79.333,169.672 79.333 C 169.761 79.333,169.833 79.428,169.833 79.544 C 169.833 80.328,172.056 82.882,172.928 83.101 C 173.151 83.157,173.333 83.260,173.333 83.330 C 173.333 83.400,173.650 83.508,174.037 83.570 C 174.424 83.632,174.786 83.756,174.841 83.846 C 174.972 84.058,179.303 84.066,179.559 83.855 C 179.664 83.768,180.031 83.644,180.375 83.580 C 180.719 83.515,181.000 83.404,181.000 83.333 C 181.000 83.261,181.169 83.160,181.376 83.108 C 182.176 82.908,184.095 81.033,184.258 80.292 C 184.314 80.040,184.421 79.833,184.495 79.833 C 184.570 79.833,184.682 79.628,184.745 79.377 C 184.808 79.126,184.930 78.876,185.017 78.823 C 185.103 78.770,185.220 78.225,185.278 77.613 C 185.335 77.001,185.446 76.500,185.524 76.500 C 185.710 76.500,185.710 73.880,185.525 73.765 C 185.446 73.717,185.336 73.174,185.278 72.559 C 185.221 71.944,185.107 71.398,185.024 71.345 C 184.942 71.293,184.822 71.006,184.758 70.708 C 184.693 70.410,184.578 70.167,184.503 70.167 C 184.428 70.167,184.288 69.942,184.192 69.667 C 184.096 69.392,183.938 69.167,183.842 69.167 C 183.746 69.167,183.667 69.065,183.667 68.940 C 183.667 68.815,183.473 68.572,183.236 68.398 C 182.805 68.083,182.259 67.654,181.882 67.336 C 181.771 67.243,181.621 67.166,181.549 67.166 C 181.476 67.165,181.192 67.039,180.917 66.886 C 180.412 66.604,175.446 66.373,174.833 66.603 M201.667 66.604 C 201.529 66.655,201.180 66.802,200.891 66.932 C 200.603 67.061,200.292 67.167,200.201 67.167 C 200.110 67.167,199.992 67.279,199.940 67.417 C 199.887 67.554,199.757 67.667,199.650 67.667 C 199.387 67.667,197.843 69.197,197.838 69.464 C 197.835 69.581,197.725 69.719,197.594 69.769 C 197.462 69.820,197.306 70.080,197.247 70.347 C 197.188 70.615,197.077 70.833,197.000 70.833 C 196.923 70.833,196.807 71.077,196.742 71.375 C 196.678 71.673,196.540 71.970,196.437 72.036 C 196.178 72.200,196.177 78.357,196.437 78.683 C 196.539 78.811,196.674 79.198,196.736 79.542 C 196.798 79.885,196.920 80.167,197.008 80.167 C 197.095 80.167,197.167 80.268,197.167 80.391 C 197.167 80.515,197.323 80.796,197.515 81.016 C 197.706 81.236,197.985 81.623,198.134 81.875 C 198.283 82.127,198.539 82.376,198.703 82.428 C 198.866 82.480,199.000 82.583,199.000 82.658 C 199.000 82.732,199.225 82.886,199.500 83.000 C 199.775 83.114,200.000 83.266,200.000 83.339 C 200.000 83.411,200.319 83.524,200.708 83.589 C 201.098 83.654,201.461 83.777,201.516 83.863 C 201.643 84.063,206.136 84.064,206.391 83.864 C 206.497 83.781,206.808 83.661,207.083 83.598 C 207.358 83.535,208.052 83.254,208.625 82.973 L 209.667 82.461 209.667 80.981 C 209.667 79.254,209.663 79.252,208.269 80.092 C 207.729 80.418,207.071 80.727,206.807 80.780 C 206.543 80.833,206.286 80.942,206.237 81.022 C 206.119 81.212,202.833 81.211,202.833 81.021 C 202.833 80.941,202.626 80.834,202.373 80.783 C 201.646 80.638,200.213 79.134,200.001 78.294 C 199.903 77.903,199.750 77.411,199.661 77.200 C 199.284 76.304,199.059 76.341,205.125 76.294 L 210.750 76.250 210.797 74.292 C 210.823 73.215,210.777 72.333,210.695 72.333 C 210.614 72.333,210.503 71.909,210.449 71.391 C 210.396 70.872,210.283 70.403,210.198 70.349 C 210.114 70.295,209.987 70.064,209.916 69.837 C 209.761 69.343,209.173 68.474,208.858 68.274 C 208.734 68.196,208.512 67.989,208.363 67.816 C 208.214 67.642,207.997 67.500,207.880 67.500 C 207.762 67.500,207.667 67.433,207.667 67.351 C 207.667 67.270,207.461 67.151,207.210 67.088 C 206.959 67.025,206.699 66.886,206.633 66.778 C 206.507 66.575,202.156 66.421,201.667 66.604 M219.042 66.612 C 218.744 66.654,218.500 66.752,218.500 66.831 C 218.500 66.909,218.275 67.023,218.000 67.083 C 217.725 67.144,217.500 67.262,217.500 67.347 C 217.500 67.431,217.403 67.500,217.284 67.500 C 216.519 67.500,214.000 70.355,214.000 71.223 C 214.000 71.375,213.928 71.500,213.839 71.500 C 213.751 71.500,213.628 71.875,213.568 72.333 C 213.507 72.792,213.392 73.167,213.312 73.167 C 213.122 73.167,213.122 77.786,213.311 77.903 C 213.391 77.952,213.504 78.294,213.563 78.663 C 213.622 79.032,213.726 79.333,213.795 79.333 C 213.863 79.333,214.014 79.639,214.131 80.012 C 214.247 80.385,214.414 80.779,214.502 80.887 C 215.158 81.692,215.966 82.500,216.117 82.500 C 216.216 82.500,216.338 82.605,216.388 82.734 C 216.437 82.863,216.708 83.019,216.989 83.081 C 217.270 83.143,217.500 83.261,217.500 83.345 C 217.500 83.428,217.802 83.544,218.170 83.603 C 218.539 83.662,218.881 83.776,218.930 83.855 C 219.047 84.045,223.333 84.044,223.333 83.855 C 223.333 83.775,223.633 83.661,224.000 83.603 C 224.367 83.544,224.667 83.437,224.667 83.365 C 224.667 83.293,224.929 83.139,225.250 83.023 L 225.833 82.812 225.833 81.323 C 225.833 79.594,225.785 79.558,224.526 80.333 C 224.079 80.608,223.595 80.833,223.450 80.833 C 223.305 80.833,223.140 80.908,223.083 81.000 C 222.957 81.205,220.167 81.224,220.167 81.021 C 220.167 80.941,219.936 80.829,219.654 80.773 C 219.105 80.663,217.333 79.098,217.333 78.722 C 217.333 78.600,217.263 78.500,217.177 78.500 C 217.091 78.500,216.970 78.162,216.908 77.748 C 216.846 77.334,216.729 76.955,216.647 76.905 C 216.456 76.787,216.454 73.833,216.645 73.833 C 216.725 73.833,216.840 73.528,216.899 73.155 C 217.058 72.163,217.656 71.290,219.001 70.085 C 219.140 69.961,219.459 69.808,219.711 69.745 C 219.963 69.682,220.211 69.563,220.261 69.482 C 220.572 68.980,225.000 69.641,225.000 70.189 C 225.000 70.268,225.188 70.333,225.417 70.333 L 225.833 70.333 225.833 68.667 C 225.833 67.135,225.807 67.000,225.514 67.000 C 225.338 67.000,225.163 66.906,225.125 66.792 C 225.055 66.581,220.279 66.440,219.042 66.612 M164.333 66.815 C 164.333 66.897,164.141 67.012,163.906 67.071 C 163.397 67.199,162.382 68.085,162.243 68.523 C 162.048 69.135,161.833 68.816,161.833 67.917 L 161.833 67.000 160.167 67.000 L 158.500 67.000 158.500 75.333 L 158.500 83.667 160.167 83.667 L 161.833 83.667 161.833 78.831 C 161.833 76.171,161.902 73.865,161.986 73.706 C 162.069 73.547,162.225 72.985,162.331 72.458 C 162.437 71.931,162.594 71.500,162.679 71.500 C 162.764 71.500,162.836 71.406,162.839 71.292 C 162.869 70.159,165.432 69.339,167.208 69.893 L 167.667 70.036 167.667 68.351 L 167.667 66.667 166.000 66.667 C 165.083 66.667,164.333 66.734,164.333 66.815 M189.133 76.506 C 189.098 83.267,189.030 86.047,188.897 86.131 C 188.795 86.197,188.658 86.421,188.593 86.630 C 188.454 87.076,187.934 87.644,187.298 88.047 C 186.818 88.350,185.167 88.453,185.167 88.180 C 185.167 88.096,184.942 87.977,184.667 87.917 C 184.392 87.856,184.167 87.738,184.167 87.653 C 184.167 87.569,184.054 87.500,183.917 87.500 C 183.712 87.500,183.667 87.786,183.667 89.070 L 183.667 90.640 184.167 90.750 C 184.442 90.810,184.667 90.929,184.667 91.013 C 184.667 91.209,187.880 91.216,188.092 91.020 C 188.179 90.940,188.550 90.779,188.917 90.664 C 190.094 90.294,191.687 88.398,191.927 87.083 C 191.993 86.717,192.131 86.363,192.232 86.298 C 192.362 86.214,192.431 83.360,192.467 76.590 L 192.518 67.000 190.850 67.000 L 189.182 67.000 189.133 76.506 M179.401 69.748 C 180.588 70.327,180.836 70.568,181.373 71.667 C 181.485 71.896,181.632 72.124,181.699 72.173 C 182.155 72.506,182.149 77.860,181.693 78.154 C 181.612 78.207,181.487 78.434,181.417 78.659 C 181.347 78.884,181.206 79.157,181.103 79.265 C 181.001 79.374,180.775 79.659,180.602 79.898 C 180.428 80.138,180.185 80.333,180.060 80.333 C 179.935 80.333,179.833 80.402,179.833 80.487 C 179.833 80.571,179.608 80.690,179.333 80.750 C 179.058 80.810,178.833 80.929,178.833 81.013 C 178.833 81.210,176.050 81.215,175.928 81.018 C 175.878 80.937,175.647 80.823,175.416 80.765 C 174.354 80.498,172.935 78.778,172.733 77.512 C 172.673 77.139,172.559 76.833,172.479 76.833 C 172.399 76.833,172.333 76.121,172.333 75.250 C 172.333 74.379,172.398 73.667,172.478 73.667 C 172.558 73.667,172.664 73.356,172.715 72.976 C 172.766 72.596,172.879 72.240,172.965 72.184 C 173.051 72.129,173.170 71.933,173.228 71.750 C 173.858 69.785,177.233 68.690,179.401 69.748 M205.391 69.623 C 206.125 70.027,206.667 70.518,206.667 70.779 C 206.667 70.901,206.738 71.000,206.826 71.000 C 206.913 71.000,207.034 71.262,207.094 71.583 C 207.155 71.904,207.270 72.167,207.352 72.167 C 207.433 72.167,207.500 72.467,207.500 72.833 L 207.500 73.500 203.482 73.500 C 199.722 73.500,199.472 73.481,199.581 73.208 C 199.646 73.048,199.795 72.603,199.913 72.220 C 200.572 70.079,203.606 68.640,205.391 69.623 " stroke="none" fill="#6c6c6c" fill-rule="evenodd"></path><path id="path2" d="M0.000 46.833 L 0.000 93.667 67.722 93.667 L 135.445 93.667 135.556 62.139 C 135.617 44.799,135.667 23.724,135.667 15.306 L 135.667 0.000 67.833 0.000 L 0.000 0.000 0.000 46.833 M110.167 35.730 C 110.167 55.645,110.129 59.657,109.941 59.813 C 109.775 59.951,103.361 59.990,85.899 59.959 L 62.083 59.917 62.041 36.083 C 62.017 22.975,62.033 12.156,62.077 12.042 C 62.140 11.876,67.111 11.833,86.161 11.833 L 110.167 11.833 110.167 35.730 M87.292 20.875 C 86.891 21.694,85.486 23.623,84.468 24.752 C 83.211 26.147,82.834 26.592,82.833 26.678 C 82.833 26.731,82.607 27.027,82.331 27.336 C 82.055 27.645,81.752 28.203,81.657 28.574 C 81.563 28.946,81.395 29.430,81.285 29.650 C 80.417 31.376,82.082 34.800,84.349 35.950 C 85.228 36.396,85.212 36.409,84.894 35.493 C 83.965 32.823,85.206 29.544,88.377 26.289 L 89.194 25.450 89.078 24.433 C 89.015 23.874,88.907 23.342,88.838 23.250 C 88.770 23.158,88.666 22.821,88.608 22.500 C 88.454 21.653,87.933 20.003,87.819 20.001 C 87.765 20.001,87.528 20.394,87.292 20.875 M92.018 23.798 C 91.711 24.400,91.542 24.630,90.709 25.585 C 90.548 25.769,90.103 26.132,89.720 26.391 C 86.733 28.413,85.048 32.199,85.861 35.064 C 86.103 35.916,86.333 36.205,86.334 35.658 C 86.335 35.434,86.447 35.035,86.584 34.773 C 86.721 34.510,86.833 34.197,86.833 34.076 C 86.833 33.956,86.936 33.755,87.061 33.629 C 87.187 33.504,87.341 33.239,87.403 33.042 C 87.552 32.572,88.896 31.217,89.839 30.584 C 90.248 30.309,90.621 30.047,90.667 30.000 C 90.712 29.954,91.173 29.696,91.689 29.425 C 93.432 28.514,93.418 28.537,93.409 26.580 C 93.404 25.579,93.324 24.772,93.216 24.641 C 93.114 24.518,92.964 24.159,92.882 23.845 C 92.677 23.048,92.408 23.034,92.018 23.798 M79.939 25.208 C 79.605 25.873,79.144 26.717,78.913 27.083 C 78.682 27.450,78.443 27.863,78.382 28.000 C 78.321 28.137,78.173 28.325,78.054 28.417 C 77.935 28.508,77.722 29.199,77.581 29.952 C 76.971 33.188,78.541 35.784,81.586 36.577 C 83.561 37.092,83.739 36.970,82.555 35.915 C 80.279 33.884,79.548 31.040,80.669 28.578 C 80.851 28.178,81.000 27.805,81.000 27.747 C 81.000 27.690,81.122 27.521,81.270 27.373 C 81.626 27.017,81.487 25.684,80.991 24.708 C 80.547 23.833,80.655 23.781,79.939 25.208 M95.321 28.000 C 94.632 28.729,92.121 30.500,91.776 30.500 C 91.699 30.500,91.464 30.631,91.254 30.792 C 91.044 30.952,90.700 31.196,90.490 31.333 C 88.902 32.372,86.869 35.650,87.229 36.589 C 87.416 37.075,90.408 36.635,91.844 35.910 C 94.136 34.752,95.876 31.632,96.231 28.042 C 96.336 26.981,96.286 26.979,95.321 28.000 M82.627 38.708 C 82.521 39.709,82.377 39.667,85.843 39.667 L 89.000 39.667 89.000 38.833 L 89.000 38.000 85.851 38.000 L 82.702 38.000 82.627 38.708 M84.069 41.692 C 84.502 45.568,84.697 47.352,84.907 49.333 C 85.601 55.883,85.787 55.637,86.921 46.667 C 87.323 43.483,87.538 40.982,87.419 40.863 C 87.357 40.801,86.551 40.724,85.628 40.692 L 83.951 40.634 84.069 41.692 M82.783 65.214 C 82.893 65.285,83.220 65.809,83.510 66.380 C 83.799 66.950,84.084 67.454,84.143 67.500 C 84.269 67.598,84.378 67.776,85.512 69.718 C 86.338 71.132,86.381 71.175,86.685 70.900 C 86.858 70.743,87.000 70.520,87.000 70.405 C 87.000 70.289,87.056 70.169,87.125 70.139 C 87.194 70.108,87.362 69.880,87.500 69.631 C 89.996 65.118,90.268 64.889,92.862 65.106 C 94.465 65.239,94.461 65.212,93.144 67.298 C 91.431 70.011,90.857 70.909,90.717 71.092 C 90.644 71.189,90.495 71.414,90.388 71.592 C 90.280 71.771,89.774 72.572,89.263 73.374 L 88.333 74.831 88.331 77.874 C 88.328 81.608,88.475 81.357,86.320 81.298 L 84.583 81.250 84.500 77.992 C 84.426 75.100,84.379 74.679,84.085 74.242 C 83.903 73.971,83.678 73.625,83.585 73.473 C 83.493 73.320,83.154 72.770,82.833 72.250 C 82.512 71.730,82.175 71.179,82.083 71.026 C 81.992 70.873,81.573 70.223,81.154 69.582 C 79.756 67.448,79.167 66.506,79.167 66.407 C 79.167 66.354,79.054 66.197,78.917 66.060 C 78.503 65.646,78.605 65.196,79.125 65.136 C 80.022 65.033,82.587 65.088,82.783 65.214 M65.999 65.812 C 66.337 66.168,67.188 67.236,67.890 68.187 C 69.604 70.509,69.669 70.594,70.292 71.323 C 70.590 71.672,70.833 72.042,70.833 72.145 C 70.833 72.249,70.895 72.333,70.971 72.333 C 71.047 72.333,71.436 72.784,71.835 73.336 C 72.815 74.689,72.828 74.641,72.831 69.542 L 72.833 65.167 74.556 65.167 L 76.279 65.167 76.389 72.875 C 76.449 77.115,76.452 80.752,76.396 80.958 C 76.276 81.401,73.290 81.553,73.120 81.125 C 73.053 80.957,70.252 77.233,69.697 76.575 C 69.117 75.887,66.180 71.961,66.121 71.793 C 65.906 71.193,65.833 72.187,65.782 76.391 C 65.716 81.760,65.882 81.360,63.735 81.298 L 62.083 81.250 62.037 73.583 C 61.980 64.198,61.780 65.167,63.779 65.167 L 65.385 65.167 65.999 65.812 M99.833 69.979 C 99.833 75.722,100.075 76.849,101.467 77.599 C 102.137 77.959,104.685 78.027,104.799 77.687 C 104.833 77.584,104.954 77.500,105.068 77.500 C 106.091 77.500,106.368 76.084,106.484 70.250 L 106.583 65.250 108.389 65.203 L 110.194 65.155 110.133 70.786 C 110.092 74.664,110.012 76.546,109.876 76.833 C 109.767 77.063,109.602 77.554,109.508 77.926 C 108.842 80.575,103.412 82.478,100.417 81.113 C 98.393 80.190,97.686 79.587,97.090 78.273 C 96.312 76.562,96.283 76.307,96.210 70.625 L 96.139 65.167 97.986 65.167 L 99.833 65.167 99.833 69.979 " stroke="none" fill="#f35404" fill-rule="evenodd"></path><path id="path3" d="M70.054 12.125 C 73.888 12.150,80.113 12.150,83.887 12.125 C 87.662 12.100,84.525 12.080,76.917 12.080 C 69.308 12.080,66.220 12.100,70.054 12.125 M109.914 36.333 C 109.914 48.571,109.934 53.577,109.958 47.458 C 109.983 41.340,109.983 31.327,109.958 25.208 C 109.934 19.090,109.914 24.096,109.914 36.333 M84.872 33.333 C 84.872 33.654,84.906 33.785,84.948 33.625 C 84.990 33.465,84.990 33.202,84.948 33.042 C 84.906 32.881,84.872 33.012,84.872 33.333 M84.701 37.790 C 85.316 37.822,86.366 37.822,87.034 37.791 C 87.703 37.759,87.200 37.733,85.917 37.732 C 84.633 37.732,84.086 37.758,84.701 37.790 M82.212 38.833 C 82.212 39.246,82.245 39.415,82.284 39.208 C 82.324 39.002,82.324 38.665,82.284 38.458 C 82.245 38.252,82.212 38.421,82.212 38.833 M89.186 39.361 C 89.175 39.606,89.073 39.843,88.958 39.890 C 88.795 39.955,88.796 39.977,88.964 39.987 C 89.228 40.003,89.387 39.620,89.283 39.218 C 89.231 39.015,89.199 39.061,89.186 39.361 M83.960 39.951 C 84.168 39.991,84.468 39.990,84.627 39.948 C 84.786 39.906,84.617 39.874,84.250 39.875 C 83.883 39.877,83.753 39.911,83.960 39.951 M87.125 39.951 C 87.331 39.991,87.669 39.991,87.875 39.951 C 88.081 39.911,87.912 39.879,87.500 39.879 C 87.087 39.879,86.919 39.911,87.125 39.951 M84.294 40.451 C 84.501 40.491,84.801 40.490,84.960 40.448 C 85.120 40.406,84.950 40.374,84.583 40.375 C 84.217 40.377,84.086 40.411,84.294 40.451 M62.625 65.451 C 62.831 65.491,63.169 65.491,63.375 65.451 C 63.581 65.411,63.413 65.379,63.000 65.379 C 62.587 65.379,62.419 65.411,62.625 65.451 M75.044 65.453 C 75.297 65.491,75.672 65.490,75.877 65.451 C 76.082 65.411,75.875 65.380,75.417 65.381 C 74.958 65.382,74.791 65.415,75.044 65.453 M96.794 65.451 C 97.001 65.491,97.301 65.490,97.460 65.448 C 97.620 65.406,97.450 65.374,97.083 65.375 C 96.717 65.377,96.586 65.411,96.794 65.451 M108.877 65.453 C 109.131 65.491,109.506 65.490,109.711 65.451 C 109.916 65.411,109.708 65.380,109.250 65.381 C 108.792 65.382,108.624 65.415,108.877 65.453 M99.573 70.000 C 99.573 72.521,99.596 73.552,99.625 72.292 C 99.653 71.031,99.653 68.969,99.625 67.708 C 99.596 66.448,99.573 67.479,99.573 70.000 M73.067 69.583 C 73.067 70.958,73.093 71.499,73.124 70.784 C 73.155 70.069,73.155 68.944,73.124 68.284 C 73.092 67.624,73.066 68.208,73.067 69.583 M106.736 70.167 C 106.736 71.862,106.761 72.556,106.791 71.708 C 106.821 70.860,106.821 69.473,106.791 68.625 C 106.761 67.777,106.736 68.471,106.736 70.167 M96.403 70.500 C 96.403 72.196,96.427 72.890,96.458 72.042 C 96.488 71.194,96.488 69.806,96.458 68.958 C 96.427 68.110,96.403 68.804,96.403 70.500 M65.570 71.522 C 65.499 71.637,65.544 71.678,65.685 71.627 C 65.812 71.582,66.067 71.614,66.250 71.698 C 66.578 71.849,66.578 71.848,66.260 71.593 C 65.875 71.284,65.726 71.269,65.570 71.522 M88.067 77.333 C 88.067 78.754,88.093 79.335,88.124 78.625 C 88.155 77.915,88.155 76.752,88.124 76.042 C 88.093 75.331,88.067 75.912,88.067 77.333 M84.736 78.083 C 84.736 79.733,84.761 80.386,84.791 79.533 C 84.821 78.681,84.821 77.331,84.791 76.533 C 84.760 75.736,84.735 76.433,84.736 78.083 M62.333 81.033 C 62.333 81.107,62.727 81.158,63.208 81.147 C 64.117 81.127,64.030 81.062,62.958 80.960 C 62.615 80.927,62.333 80.960,62.333 81.033 M74.875 81.119 C 75.127 81.158,75.540 81.158,75.792 81.119 C 76.044 81.081,75.837 81.050,75.333 81.050 C 74.829 81.050,74.623 81.081,74.875 81.119 M86.458 81.121 C 86.756 81.158,87.244 81.158,87.542 81.121 C 87.840 81.084,87.596 81.053,87.000 81.053 C 86.404 81.053,86.160 81.084,86.458 81.121 M102.794 81.285 C 103.001 81.324,103.301 81.323,103.460 81.281 C 103.620 81.239,103.450 81.207,103.083 81.209 C 102.717 81.211,102.586 81.245,102.794 81.285 " stroke="none" fill="#dc938c" fill-rule="evenodd"></path><path id="path4" d="M104.717 11.958 C 105.708 11.987,107.283 11.987,108.217 11.958 C 109.152 11.928,108.342 11.904,106.417 11.904 C 104.492 11.904,103.727 11.928,104.717 11.958 M110.081 35.417 C 110.081 47.058,110.101 51.796,110.125 45.945 C 110.149 40.095,110.149 30.570,110.125 24.779 C 110.101 18.988,110.081 23.775,110.081 35.417 M80.872 31.000 C 80.872 31.321,80.906 31.452,80.948 31.292 C 80.990 31.131,80.990 30.869,80.948 30.708 C 80.906 30.548,80.872 30.679,80.872 31.000 M84.705 33.333 C 84.705 33.654,84.740 33.785,84.782 33.625 C 84.823 33.465,84.823 33.202,84.782 33.042 C 84.740 32.881,84.705 33.012,84.705 33.333 M105.883 59.957 C 106.597 59.989,107.722 59.988,108.383 59.957 C 109.043 59.925,108.458 59.900,107.083 59.900 C 105.708 59.900,105.168 59.926,105.883 59.957 M62.794 65.285 C 63.001 65.324,63.301 65.323,63.460 65.281 C 63.620 65.239,63.450 65.207,63.083 65.209 C 62.717 65.211,62.586 65.245,62.794 65.285 M75.042 65.286 C 75.294 65.324,75.706 65.324,75.958 65.286 C 76.210 65.248,76.004 65.217,75.500 65.217 C 74.996 65.217,74.790 65.248,75.042 65.286 M96.794 65.285 C 97.001 65.324,97.301 65.323,97.460 65.281 C 97.620 65.239,97.450 65.207,97.083 65.209 C 96.717 65.211,96.586 65.245,96.794 65.285 M108.875 65.286 C 109.127 65.324,109.540 65.324,109.792 65.286 C 110.044 65.248,109.837 65.217,109.333 65.217 C 108.829 65.217,108.623 65.248,108.875 65.286 M72.885 66.250 C 72.886 66.800,72.917 67.005,72.954 66.705 C 72.991 66.406,72.990 65.956,72.952 65.705 C 72.914 65.455,72.884 65.700,72.885 66.250 M99.739 70.167 C 99.739 72.596,99.763 73.590,99.791 72.375 C 99.820 71.160,99.820 69.173,99.791 67.958 C 99.763 66.744,99.739 67.737,99.739 70.167 M106.569 70.333 C 106.569 72.029,106.594 72.723,106.624 71.875 C 106.654 71.027,106.654 69.640,106.624 68.792 C 106.594 67.944,106.569 68.637,106.569 70.333 M96.236 70.500 C 96.236 72.196,96.261 72.890,96.291 72.042 C 96.321 71.194,96.321 69.806,96.291 68.958 C 96.261 68.110,96.236 68.804,96.236 70.500 M65.567 74.250 C 65.567 75.625,65.593 76.165,65.624 75.451 C 65.655 74.736,65.655 73.611,65.624 72.951 C 65.592 72.290,65.566 72.875,65.567 74.250 M72.887 73.000 C 72.887 73.596,72.917 73.840,72.954 73.542 C 72.991 73.244,72.991 72.756,72.954 72.458 C 72.917 72.160,72.887 72.404,72.887 73.000 M88.233 77.250 C 88.234 78.625,88.259 79.165,88.291 78.451 C 88.322 77.736,88.322 76.611,88.290 75.951 C 88.259 75.290,88.233 75.875,88.233 77.250 M65.548 80.250 C 65.549 80.708,65.581 80.876,65.620 80.623 C 65.658 80.369,65.657 79.994,65.617 79.789 C 65.578 79.584,65.546 79.792,65.548 80.250 M73.708 81.282 C 73.869 81.323,74.131 81.323,74.292 81.282 C 74.452 81.240,74.321 81.205,74.000 81.205 C 73.679 81.205,73.548 81.240,73.708 81.282 M85.127 81.285 C 85.334 81.324,85.634 81.323,85.794 81.281 C 85.953 81.239,85.783 81.207,85.417 81.209 C 85.050 81.211,84.920 81.245,85.127 81.285 " stroke="none" fill="#dc755e" fill-rule="evenodd"></path><path id="path5" d="M110.056 13.167 C 110.056 13.854,110.085 14.135,110.121 13.792 C 110.157 13.448,110.157 12.885,110.121 12.542 C 110.085 12.198,110.056 12.479,110.056 13.167 M88.503 21.597 C 88.504 21.773,88.581 22.029,88.674 22.167 C 88.798 22.349,88.813 22.282,88.732 21.917 C 88.595 21.304,88.499 21.171,88.503 21.597 M86.182 22.292 C 85.772 22.891,85.747 22.962,86.078 22.583 C 86.519 22.080,86.897 21.500,86.784 21.500 C 86.751 21.500,86.479 21.856,86.182 22.292 M84.424 24.458 C 83.790 25.169,83.517 25.525,83.818 25.250 C 84.372 24.743,85.748 23.167,85.637 23.167 C 85.604 23.167,85.058 23.748,84.424 24.458 M80.500 24.023 C 80.637 24.148,80.858 24.363,80.990 24.500 C 81.176 24.694,81.172 24.658,80.975 24.342 C 80.836 24.118,80.615 23.903,80.486 23.865 C 80.296 23.809,80.299 23.839,80.500 24.023 M89.196 24.824 C 89.174 25.376,89.052 25.684,88.719 26.033 C 88.473 26.290,88.341 26.496,88.427 26.491 C 88.859 26.465,89.352 25.495,89.289 24.795 L 89.225 24.083 89.196 24.824 M93.320 24.958 C 93.400 25.534,93.411 25.545,93.466 25.105 C 93.499 24.841,93.460 24.560,93.380 24.480 C 93.296 24.396,93.271 24.600,93.320 24.958 M88.360 27.277 L 87.417 28.221 88.417 27.329 C 88.967 26.838,89.448 26.413,89.486 26.385 C 89.524 26.357,89.499 26.333,89.430 26.333 C 89.361 26.333,88.879 26.758,88.360 27.277 M94.925 28.113 C 94.380 28.627,94.080 28.967,94.259 28.870 C 94.575 28.697,96.145 27.161,95.993 27.173 C 95.951 27.176,95.471 27.599,94.925 28.113 M87.167 27.749 C 86.952 27.978,86.808 28.193,86.847 28.227 C 86.885 28.261,87.091 28.074,87.304 27.811 C 87.782 27.223,87.697 27.185,87.167 27.749 M96.193 28.604 C 96.179 28.891,96.129 29.378,96.084 29.688 L 96.001 30.250 96.176 29.691 C 96.273 29.384,96.322 28.896,96.286 28.608 L 96.220 28.083 96.193 28.604 M87.000 28.833 C 86.804 29.108,86.681 29.333,86.727 29.333 C 86.773 29.333,86.971 29.108,87.167 28.833 C 87.362 28.558,87.485 28.333,87.439 28.333 C 87.394 28.333,87.196 28.558,87.000 28.833 M80.437 29.423 C 80.380 29.572,80.340 29.819,80.348 29.972 C 80.356 30.125,80.428 30.029,80.509 29.758 C 80.666 29.232,80.610 28.972,80.437 29.423 M91.292 29.762 C 90.669 30.100,90.707 30.241,91.333 29.917 C 91.608 29.774,91.833 29.623,91.833 29.579 C 91.833 29.472,91.815 29.478,91.292 29.762 M85.432 30.309 C 85.247 30.607,84.986 31.409,85.125 31.250 C 85.309 31.039,85.683 30.167,85.590 30.167 C 85.551 30.167,85.480 30.231,85.432 30.309 M91.458 30.429 C 90.835 30.767,90.873 30.907,91.500 30.583 C 91.775 30.441,92.000 30.289,92.000 30.246 C 92.000 30.138,91.982 30.145,91.458 30.429 M77.214 31.250 C 77.216 31.708,77.248 31.876,77.286 31.623 C 77.325 31.369,77.324 30.994,77.284 30.789 C 77.244 30.584,77.213 30.792,77.214 31.250 M95.595 31.262 C 95.534 31.506,95.516 31.738,95.555 31.777 C 95.594 31.817,95.677 31.649,95.738 31.405 C 95.799 31.161,95.817 30.929,95.778 30.889 C 95.739 30.850,95.657 31.018,95.595 31.262 M89.692 31.683 C 89.386 31.962,89.166 32.221,89.204 32.259 C 89.242 32.297,89.526 32.067,89.836 31.748 C 90.528 31.034,90.447 30.998,89.692 31.683 M88.324 31.958 L 87.750 32.583 88.415 32.000 C 88.780 31.679,89.112 31.398,89.151 31.375 C 89.190 31.352,89.149 31.333,89.060 31.333 C 88.972 31.333,88.640 31.615,88.324 31.958 M80.270 32.083 C 80.330 32.358,80.444 32.696,80.525 32.833 C 80.619 32.993,80.632 32.903,80.563 32.583 C 80.504 32.308,80.389 31.971,80.309 31.833 C 80.215 31.673,80.201 31.763,80.270 32.083 M85.385 33.250 C 85.386 33.800,85.417 34.005,85.454 33.705 C 85.491 33.406,85.490 32.956,85.452 32.705 C 85.414 32.455,85.384 32.700,85.385 33.250 M87.065 35.905 C 86.875 36.399,87.073 36.916,87.461 36.939 C 87.807 36.959,87.809 36.955,87.486 36.883 C 87.193 36.819,87.145 36.709,87.200 36.236 C 87.270 35.636,87.217 35.507,87.065 35.905 M80.074 36.241 C 80.251 36.383,80.514 36.494,80.657 36.487 C 80.881 36.475,80.883 36.461,80.667 36.381 C 80.529 36.330,80.267 36.219,80.083 36.135 C 79.755 35.984,79.755 35.986,80.074 36.241 M81.750 36.827 C 82.259 36.963,83.612 37.050,83.486 36.939 C 83.448 36.905,82.929 36.836,82.333 36.785 C 81.651 36.727,81.435 36.743,81.750 36.827 M85.292 39.954 C 85.590 39.991,86.077 39.991,86.375 39.954 C 86.673 39.917,86.429 39.887,85.833 39.887 C 85.237 39.887,84.994 39.917,85.292 39.954 M87.556 41.547 L 87.535 42.583 87.659 41.667 C 87.728 41.162,87.737 40.696,87.681 40.631 C 87.624 40.565,87.568 40.977,87.556 41.547 M83.883 41.833 C 83.883 42.337,83.915 42.544,83.953 42.292 C 83.991 42.040,83.991 41.627,83.953 41.375 C 83.915 41.123,83.883 41.329,83.883 41.833 M87.383 43.667 C 87.383 44.171,87.415 44.377,87.453 44.125 C 87.491 43.873,87.491 43.460,87.453 43.208 C 87.415 42.956,87.383 43.163,87.383 43.667 M84.205 44.833 C 84.205 45.154,84.240 45.285,84.282 45.125 C 84.323 44.965,84.323 44.702,84.282 44.542 C 84.240 44.381,84.205 44.512,84.205 44.833 M84.379 46.167 C 84.379 46.579,84.411 46.748,84.451 46.542 C 84.491 46.335,84.491 45.998,84.451 45.792 C 84.411 45.585,84.379 45.754,84.379 46.167 M86.881 47.750 C 86.882 48.208,86.915 48.376,86.953 48.123 C 86.991 47.869,86.990 47.494,86.951 47.289 C 86.911 47.084,86.880 47.292,86.881 47.750 M84.883 50.833 C 84.883 51.337,84.915 51.544,84.953 51.292 C 84.991 51.040,84.991 50.627,84.953 50.375 C 84.915 50.123,84.883 50.329,84.883 50.833 M86.381 51.417 C 86.382 51.875,86.415 52.043,86.453 51.789 C 86.491 51.536,86.490 51.161,86.451 50.956 C 86.411 50.751,86.380 50.958,86.381 51.417 M85.264 53.726 C 85.322 53.877,85.530 53.994,85.726 53.987 C 85.970 53.978,86.004 53.944,85.833 53.881 C 85.696 53.830,85.488 53.713,85.371 53.621 C 85.212 53.495,85.185 53.522,85.264 53.726 M72.805 59.958 C 78.701 59.983,88.301 59.983,94.138 59.958 C 99.975 59.934,95.150 59.914,83.417 59.914 C 71.683 59.914,66.908 59.934,72.805 59.958 M63.958 65.284 C 64.165 65.324,64.502 65.324,64.708 65.284 C 64.915 65.245,64.746 65.212,64.333 65.212 C 63.921 65.212,63.752 65.245,63.958 65.284 M73.375 65.286 C 73.627 65.324,74.040 65.324,74.292 65.286 C 74.544 65.248,74.337 65.217,73.833 65.217 C 73.329 65.217,73.123 65.248,73.375 65.286 M78.667 65.407 C 78.667 65.539,78.741 65.693,78.831 65.749 C 78.924 65.806,78.955 65.743,78.903 65.607 C 78.846 65.458,78.928 65.332,79.113 65.284 C 79.356 65.221,79.342 65.202,79.042 65.186 C 78.817 65.174,78.667 65.263,78.667 65.407 M80.125 65.287 C 80.423 65.324,80.910 65.324,81.208 65.287 C 81.506 65.250,81.262 65.220,80.667 65.220 C 80.071 65.220,79.827 65.250,80.125 65.287 M90.017 65.756 C 89.733 66.080,89.501 66.399,89.502 66.464 C 89.503 66.530,89.701 66.333,89.941 66.028 C 90.182 65.722,90.538 65.408,90.731 65.330 C 90.990 65.226,91.010 65.185,90.809 65.177 C 90.658 65.171,90.302 65.432,90.017 65.756 M92.708 65.282 C 92.869 65.323,93.131 65.323,93.292 65.282 C 93.452 65.240,93.321 65.205,93.000 65.205 C 92.679 65.205,92.548 65.240,92.708 65.282 M97.833 65.261 C 98.401 65.388,99.667 65.410,99.667 65.293 C 99.667 65.223,99.198 65.175,98.625 65.186 C 98.052 65.197,97.696 65.230,97.833 65.261 M106.735 65.396 C 106.686 65.522,106.675 65.991,106.710 66.438 L 106.773 67.250 106.803 66.300 L 106.833 65.351 107.708 65.290 L 108.583 65.228 107.703 65.197 C 107.087 65.176,106.796 65.236,106.735 65.396 M62.217 66.167 C 62.217 66.671,62.248 66.877,62.286 66.625 C 62.324 66.373,62.324 65.960,62.286 65.708 C 62.248 65.456,62.217 65.662,62.217 66.167 M65.562 65.708 C 65.790 65.915,66.179 66.308,66.426 66.583 C 66.673 66.858,66.776 66.933,66.654 66.750 C 66.308 66.225,65.449 65.333,65.291 65.333 C 65.213 65.333,65.334 65.502,65.562 65.708 M76.223 66.500 C 76.223 67.188,76.252 67.469,76.288 67.125 C 76.324 66.781,76.324 66.219,76.288 65.875 C 76.252 65.531,76.223 65.813,76.223 66.500 M96.235 65.562 C 96.187 65.687,96.172 66.193,96.202 66.687 L 96.256 67.583 96.336 66.458 C 96.417 65.325,96.397 65.141,96.235 65.562 M110.073 70.000 C 110.073 72.612,110.096 73.681,110.125 72.375 C 110.153 71.069,110.153 68.931,110.125 67.625 C 110.096 66.319,110.073 67.387,110.073 70.000 M67.833 68.500 C 68.029 68.775,68.227 69.000,68.273 69.000 C 68.319 69.000,68.196 68.775,68.000 68.500 C 67.804 68.225,67.606 68.000,67.561 68.000 C 67.515 68.000,67.638 68.225,67.833 68.500 M81.350 69.740 C 81.542 70.066,81.732 70.333,81.771 70.333 C 81.889 70.333,81.348 69.362,81.168 69.251 C 81.075 69.193,81.157 69.414,81.350 69.740 M87.709 69.375 C 87.473 69.673,87.142 70.333,87.228 70.333 C 87.268 70.333,87.455 70.071,87.645 69.750 C 87.989 69.167,88.020 68.982,87.709 69.375 M69.164 70.251 C 69.828 71.051,69.884 71.102,69.703 70.748 C 69.608 70.564,69.355 70.264,69.140 70.083 C 68.764 69.764,68.765 69.770,69.164 70.251 M85.679 70.417 C 85.885 70.783,86.125 71.158,86.212 71.250 C 86.462 71.512,85.891 70.456,85.582 70.083 C 85.429 69.900,85.473 70.050,85.679 70.417 M70.500 71.901 C 70.500 71.970,70.777 72.377,71.117 72.805 C 71.956 73.864,72.000 73.914,72.000 73.803 C 72.000 73.750,71.662 73.272,71.250 72.741 C 70.837 72.210,70.500 71.832,70.500 71.901 M67.318 73.305 C 67.408 73.473,67.613 73.717,67.773 73.847 C 67.953 73.993,67.913 73.877,67.667 73.542 C 67.229 72.944,67.065 72.833,67.318 73.305 M106.548 74.083 C 106.549 74.542,106.581 74.709,106.620 74.456 C 106.658 74.203,106.657 73.828,106.617 73.623 C 106.578 73.418,106.546 73.625,106.548 74.083 M69.485 76.139 C 69.575 76.307,69.779 76.550,69.939 76.680 C 70.119 76.827,70.079 76.710,69.834 76.375 C 69.396 75.777,69.232 75.666,69.485 76.139 M62.230 79.083 C 62.231 80.183,62.258 80.612,62.290 80.035 C 62.323 79.459,62.323 78.559,62.290 78.035 C 62.257 77.512,62.230 77.983,62.230 79.083 M71.163 78.328 C 71.357 78.601,71.601 78.876,71.705 78.940 C 71.809 79.004,71.684 78.782,71.427 78.445 C 70.870 77.715,70.660 77.622,71.163 78.328 M97.353 78.666 C 97.768 79.405,98.500 80.168,98.500 79.862 C 98.500 79.755,98.430 79.667,98.345 79.667 C 98.260 79.667,97.947 79.292,97.651 78.833 C 97.003 77.834,96.831 77.737,97.353 78.666 M108.594 79.125 C 108.234 79.585,108.205 79.663,108.485 79.419 C 108.819 79.127,109.260 78.500,109.131 78.500 C 109.105 78.500,108.863 78.781,108.594 79.125 M88.042 80.417 C 88.044 80.783,88.078 80.914,88.118 80.706 C 88.158 80.499,88.156 80.199,88.115 80.040 C 88.073 79.880,88.040 80.050,88.042 80.417 M72.849 80.500 C 73.332 81.248,73.333 81.250,73.333 81.069 C 73.332 80.985,73.138 80.692,72.902 80.417 L 72.472 79.917 72.849 80.500 M106.000 80.833 C 105.657 80.943,105.642 80.969,105.917 80.981 C 106.100 80.989,106.362 80.922,106.500 80.833 C 106.792 80.645,106.589 80.645,106.000 80.833 M101.627 81.285 C 101.834 81.324,102.134 81.323,102.294 81.281 C 102.453 81.239,102.283 81.207,101.917 81.209 C 101.550 81.211,101.420 81.245,101.627 81.285 " stroke="none" fill="#e4947c" fill-rule="evenodd"></path><path id="path6" d="M110.039 58.833 C 110.039 59.154,110.073 59.285,110.115 59.125 C 110.157 58.965,110.157 58.702,110.115 58.542 C 110.073 58.381,110.039 58.512,110.039 58.833 M84.569 78.083 C 84.570 79.825,84.594 80.515,84.624 79.616 C 84.654 78.718,84.654 77.293,84.624 76.450 C 84.594 75.607,84.569 76.342,84.569 78.083 M88.205 80.333 C 88.205 80.654,88.240 80.785,88.282 80.625 C 88.323 80.465,88.323 80.202,88.282 80.042 C 88.240 79.881,88.205 80.012,88.205 80.333 " stroke="none" fill="#dc562e" fill-rule="evenodd"></path><path id="path7" d="M62.077 12.042 C 62.033 12.156,62.017 22.975,62.041 36.083 L 62.084 59.917 62.126 35.968 L 62.167 12.020 62.792 11.955 L 63.417 11.889 62.786 11.861 C 62.413 11.845,62.124 11.918,62.077 12.042 M77.388 11.958 C 82.138 11.983,89.863 11.983,94.554 11.958 C 99.245 11.934,95.358 11.914,85.917 11.914 C 76.475 11.914,72.637 11.934,77.388 11.958 M82.917 35.000 C 83.275 35.367,83.605 35.667,83.651 35.667 C 83.697 35.667,83.441 35.367,83.083 35.000 C 82.725 34.633,82.395 34.333,82.349 34.333 C 82.303 34.333,82.559 34.633,82.917 35.000 M84.208 37.958 C 85.102 37.988,86.565 37.988,87.458 37.958 C 88.352 37.928,87.621 37.903,85.833 37.903 C 84.046 37.903,83.315 37.928,84.208 37.958 M89.013 39.284 C 89.001 39.619,88.901 39.657,87.875 39.710 L 86.750 39.768 87.880 39.801 C 89.030 39.834,89.329 39.671,89.112 39.130 C 89.065 39.013,89.020 39.082,89.013 39.284 M83.292 39.787 C 83.590 39.824,84.077 39.824,84.375 39.787 C 84.673 39.750,84.429 39.720,83.833 39.720 C 83.237 39.720,82.994 39.750,83.292 39.787 M87.039 45.500 C 87.039 45.821,87.073 45.952,87.115 45.792 C 87.157 45.631,87.157 45.369,87.115 45.208 C 87.073 45.048,87.039 45.179,87.039 45.500 M84.712 48.333 C 84.712 48.746,84.745 48.915,84.784 48.708 C 84.824 48.502,84.824 48.165,84.784 47.958 C 84.745 47.752,84.712 47.921,84.712 48.333 M86.542 49.417 C 86.544 49.783,86.578 49.914,86.618 49.706 C 86.658 49.499,86.656 49.199,86.615 49.040 C 86.573 48.880,86.540 49.050,86.542 49.417 M110.052 57.417 C 110.053 57.967,110.084 58.172,110.121 57.872 C 110.158 57.572,110.157 57.122,110.119 56.872 C 110.081 56.622,110.051 56.867,110.052 57.417 M62.074 72.167 C 62.074 75.054,62.097 76.235,62.125 74.792 C 62.152 73.348,62.152 70.985,62.125 69.542 C 62.097 68.098,62.074 69.279,62.074 72.167 M72.900 69.583 C 72.900 70.958,72.926 71.499,72.957 70.784 C 72.989 70.069,72.988 68.944,72.957 68.284 C 72.925 67.624,72.900 68.208,72.900 69.583 M65.559 78.083 C 65.559 78.908,65.587 79.267,65.622 78.880 C 65.657 78.493,65.657 77.818,65.623 77.380 C 65.588 76.942,65.560 77.258,65.559 78.083 M63.917 81.167 L 62.250 81.269 63.865 81.301 C 64.799 81.320,65.524 81.263,65.583 81.167 C 65.640 81.075,65.663 81.015,65.635 81.032 C 65.607 81.050,64.833 81.111,63.917 81.167 M74.961 81.287 C 75.261 81.325,75.711 81.324,75.961 81.286 C 76.212 81.248,75.967 81.217,75.417 81.218 C 74.867 81.219,74.662 81.250,74.961 81.287 M86.458 81.287 C 86.756 81.324,87.244 81.324,87.542 81.287 C 87.840 81.250,87.596 81.220,87.000 81.220 C 86.404 81.220,86.160 81.250,86.458 81.287 " stroke="none" fill="#e46434" fill-rule="evenodd"></path><path id="path8" d="M64.717 11.958 C 65.523 11.988,66.798 11.988,67.550 11.957 C 68.302 11.926,67.642 11.901,66.083 11.902 C 64.525 11.902,63.910 11.927,64.717 11.958 M85.550 33.167 C 85.550 33.671,85.581 33.877,85.619 33.625 C 85.658 33.373,85.658 32.960,85.619 32.708 C 85.581 32.456,85.550 32.662,85.550 33.167 M82.542 38.583 C 82.544 38.950,82.578 39.080,82.618 38.873 C 82.658 38.666,82.656 38.366,82.615 38.206 C 82.573 38.047,82.540 38.217,82.542 38.583 M85.292 39.787 C 85.590 39.824,86.077 39.824,86.375 39.787 C 86.673 39.750,86.429 39.720,85.833 39.720 C 85.237 39.720,84.994 39.750,85.292 39.787 M84.621 40.620 C 84.917 40.657,85.442 40.658,85.788 40.622 C 86.134 40.586,85.892 40.555,85.250 40.555 C 84.608 40.554,84.325 40.583,84.621 40.620 M91.458 65.118 C 91.665 65.157,92.002 65.157,92.208 65.118 C 92.415 65.078,92.246 65.045,91.833 65.045 C 91.421 65.045,91.252 65.078,91.458 65.118 M106.552 66.250 C 106.553 66.800,106.584 67.005,106.621 66.705 C 106.658 66.406,106.657 65.956,106.619 65.705 C 106.581 65.455,106.551 65.700,106.552 66.250 M62.048 66.250 C 62.049 66.708,62.081 66.876,62.120 66.623 C 62.158 66.369,62.157 65.994,62.117 65.789 C 62.078 65.584,62.046 65.792,62.048 66.250 M65.733 74.250 C 65.734 75.625,65.759 76.165,65.791 75.451 C 65.822 74.736,65.822 73.611,65.790 72.951 C 65.759 72.290,65.733 72.875,65.733 74.250 M76.402 78.000 C 76.402 79.604,76.427 80.260,76.457 79.458 C 76.488 78.656,76.488 77.344,76.457 76.542 C 76.427 75.740,76.402 76.396,76.402 78.000 M62.029 79.198 C 62.013 80.270,62.056 81.182,62.125 81.225 C 62.194 81.268,62.230 80.691,62.205 79.943 C 62.124 77.493,62.059 77.216,62.029 79.198 M65.714 80.250 C 65.716 80.708,65.748 80.876,65.786 80.623 C 65.825 80.369,65.824 79.994,65.784 79.789 C 65.744 79.584,65.713 79.792,65.714 80.250 " stroke="none" fill="#e45c2c" fill-rule="evenodd"></path></g></svg>